<svg viewBox="0 0 32 32" fill="none" xmlns="http://www.w3.org/2000/svg">
  <path
    d="M19.4881 8.5114C19.5905 8.6142 19.6862 8.72306 19.7746 8.83723C20.0152 9.14812 20.2018 9.49849 20.3254 9.87378L20.8727 11.5565C20.9185 11.6862 21.0034 11.7985 21.1158 11.8779C21.2281 11.9573 21.3624 12 21.5 12C21.6376 12 21.7719 11.9573 21.8842 11.8779C21.9845 11.807 22.0629 11.71 22.1111 11.5978C22.1169 11.5842 22.1223 11.5705 22.1273 11.5565L22.6746 9.87378C22.8448 9.36221 23.132 8.89736 23.5135 8.51616C23.895 8.13496 24.3602 7.84793 24.8722 7.67788L26.5561 7.13101C26.6859 7.08525 26.7983 7.0004 26.8778 6.88813C26.9573 6.77587 27 6.64173 27 6.50421C27 6.36668 26.9573 6.23254 26.8778 6.12028C26.7983 6.00802 26.6859 5.92316 26.5561 5.87741L26.5224 5.86899L24.8385 5.32212C24.3265 5.15207 23.8613 4.86504 23.4798 4.48384C23.0983 4.10264 22.8111 3.63779 22.6409 3.12622L22.0936 1.44354C22.0478 1.31384 21.9629 1.20154 21.8505 1.1221C21.7382 1.04266 21.604 1 21.4663 1C21.3287 1 21.1944 1.04266 21.0821 1.1221C20.9697 1.20154 20.8848 1.31384 20.839 1.44354L20.2918 3.12622L20.2778 3.16788C20.1094 3.65949 19.8326 4.10718 19.4675 4.47768C19.0921 4.85862 18.6336 5.14763 18.1278 5.32212L16.4439 5.86899C16.3141 5.91475 16.2017 5.9996 16.1222 6.11187C16.0427 6.22413 16 6.35827 16 6.49579C16 6.63332 16.0427 6.76746 16.1222 6.87972C16.2017 6.99198 16.3141 7.07684 16.4439 7.12259L18.1278 7.66946C18.6407 7.84036 19.1065 8.12868 19.4881 8.5114Z"
    fill="url(#paint0_linear_4215_1002)" />
  <path
    d="M28.821 13.3575L29.7395 13.6558L29.7579 13.6604C29.8287 13.6854 29.89 13.7316 29.9333 13.7929C29.9767 13.8541 30 13.9273 30 14.0023C30 14.0773 29.9767 14.1505 29.9333 14.2117C29.89 14.2729 29.8287 14.3192 29.7579 14.3442L28.8394 14.6425C28.5601 14.7352 28.3064 14.8918 28.0983 15.0997C27.8902 15.3077 27.7335 15.5612 27.6407 15.8402L27.3422 16.7581C27.3172 16.8288 27.2709 16.8901 27.2096 16.9334C27.1483 16.9767 27.0751 17 27 17C26.9249 17 26.8517 16.9767 26.7904 16.9334C26.7291 16.8901 26.6828 16.8288 26.6578 16.7581L26.3593 15.8402C26.2671 15.5604 26.1107 15.3059 25.9026 15.0971C25.6945 14.8884 25.4404 14.7311 25.1606 14.6379L24.2421 14.3396C24.1713 14.3146 24.11 14.2684 24.0667 14.2071C24.0233 14.1459 24 14.0727 24 13.9977C24 13.9227 24.0233 13.8495 24.0667 13.7883C24.11 13.7271 24.1713 13.6808 24.2421 13.6558L25.1606 13.3575C25.4365 13.2623 25.6866 13.1047 25.8913 12.8969C26.0961 12.6891 26.25 12.4368 26.341 12.1598L26.6395 11.2419C26.6645 11.1712 26.7108 11.1099 26.7721 11.0666C26.8333 11.0233 26.9066 11 26.9816 11C27.0567 11 27.1299 11.0233 27.1912 11.0666C27.2525 11.1099 27.2988 11.1712 27.3238 11.2419L27.6223 12.1598C27.7151 12.4388 27.8718 12.6924 28.0799 12.9003C28.288 13.1082 28.5417 13.2648 28.821 13.3575Z"
    fill="url(#paint1_linear_4215_1002)" />
  <path fill-rule="evenodd" clip-rule="evenodd"
    d="M6.25 3H18.7034C18.619 3.14451 18.5172 3.27874 18.4 3.39954C18.1897 3.61926 17.9288 3.78408 17.64 3.87954L16 4.43954C15.5647 4.58085 15.1852 4.85618 14.9158 5.22617C14.6464 5.59616 14.5008 6.04185 14.5 6.49954C14.5096 6.94081 14.6536 7.36866 14.9126 7.726C15.1717 8.08335 15.5336 8.35319 15.95 8.49954L17.66 9.05954C17.9502 9.15318 18.2141 9.31424 18.43 9.52954C18.43 9.56597 18.4706 9.60241 18.5136 9.64109C18.5415 9.6661 18.5704 9.69205 18.59 9.71954C18.7281 9.89219 18.8332 10.0888 18.9 10.2995L19.45 11.9995C19.5565 12.3199 19.7366 12.6109 19.9759 12.8491C20.2152 13.0872 20.507 13.266 20.8279 13.371C21.1488 13.476 21.4898 13.5044 21.8236 13.4538C22.1574 13.4031 22.4747 13.275 22.75 13.0795C22.5931 13.3541 22.5071 13.6634 22.5 13.9795C22.4991 14.3629 22.618 14.737 22.84 15.0495C22.8891 15.1183 22.9426 15.1833 23 15.2444V19H29V24.5C29 26.9853 26.9853 29 24.5 29H7.5C5.01472 29 3 26.9853 3 24.5V6.25C3 4.45507 4.45507 3 6.25 3ZM23 27H24.5C25.8807 27 27 25.8807 27 24.5V21H23V27ZM8 10C8 10.5523 8.44772 11 9 11H17C17.5523 11 18 10.5523 18 10C18 9.44772 17.5523 9 17 9H9C8.44772 9 8 9.44772 8 10ZM9 15C8.44772 15 8 15.4477 8 16C8 16.5523 8.44772 17 9 17H17C17.5523 17 18 16.5523 18 16C18 15.4477 17.5523 15 17 15H9ZM8 22C8 22.5523 8.44772 23 9 23H13C13.5523 23 14 22.5523 14 22C14 21.4477 13.5523 21 13 21H9C8.44772 21 8 21.4477 8 22Z"
    fill="url(#paint2_linear_4215_1002)" />
  <defs>
    <linearGradient id="paint0_linear_4215_1002" x1="16.5" y1="1" x2="16.5" y2="29" gradientUnits="userSpaceOnUse">
      <stop offset="0.296875" stop-color="#2886DE" />
      <stop offset="1" stop-color="#316BAA" />
    </linearGradient>
    <linearGradient id="paint1_linear_4215_1002" x1="16.5" y1="1" x2="16.5" y2="29" gradientUnits="userSpaceOnUse">
      <stop offset="0.296875" stop-color="#2886DE" />
      <stop offset="1" stop-color="#316BAA" />
    </linearGradient>
    <linearGradient id="paint2_linear_4215_1002" x1="16.5" y1="1" x2="16.5" y2="29" gradientUnits="userSpaceOnUse">
      <stop offset="0.296875" stop-color="#2886DE" />
      <stop offset="1" stop-color="#316BAA" />
    </linearGradient>
  </defs>
</svg>