<svg width="103" height="103" viewBox="0 0 103 103" fill="none" xmlns="http://www.w3.org/2000/svg">
<path d="M51.124 98.2467C25.274 98.2467 4.31396 77.2967 4.31396 51.4367C4.31396 25.5767 25.274 4.62671 51.124 4.62671C76.974 4.62671 97.934 25.5867 97.934 51.4367C97.934 77.2867 76.974 98.2467 51.124 98.2467Z" fill="url(#paint0_linear_1081_145)"/>
<path fill-rule="evenodd" clip-rule="evenodd" d="M97.0239 51.4368C97.0239 76.7868 76.4739 97.3367 51.1239 97.3367C25.7739 97.3367 5.22389 76.7868 5.22389 51.4368C5.22389 26.0868 25.7739 5.53676 51.1239 5.53676C76.4739 5.53676 97.0239 26.0868 97.0239 51.4368ZM51.1239 1.79675C78.5439 1.79675 100.764 24.0168 100.764 51.4368C100.764 78.8568 78.5339 101.077 51.1239 101.077C23.7039 101.077 1.48389 78.8468 1.48389 51.4368C1.48389 24.0168 23.7039 1.79675 51.1239 1.79675Z" fill="#F2F1F0"/>
<path fill-rule="evenodd" clip-rule="evenodd" d="M94.214 51.4367C94.214 75.2367 74.9239 94.5267 51.1239 94.5267C27.3239 94.5267 8.03395 75.2367 8.03395 51.4367C8.03395 27.6367 27.3239 8.34669 51.1239 8.34669C74.9239 8.34669 94.214 27.6367 94.214 51.4367ZM51.1239 4.60669C76.9839 4.60669 97.9539 25.5767 97.9539 51.4367C97.9539 77.2967 76.9839 98.2667 51.1239 98.2667C25.2639 98.2667 4.29395 77.2967 4.29395 51.4367C4.29395 25.5767 25.2539 4.60669 51.1239 4.60669Z" fill="url(#paint1_linear_1081_145)"/>
<path d="M44.2615 42.1022H29.4516C28.6124 42.1046 27.8084 42.4391 27.215 43.0325C26.6216 43.6259 26.2871 44.43 26.2847 45.2691V59.6986H76.9557V50.0195C76.9532 49.1804 76.6188 48.3763 76.0254 47.7829C75.432 47.1895 74.6279 46.8551 73.7887 46.8526H50.0367L47.2409 43.4977C46.8769 43.0609 46.4214 42.7095 45.9065 42.4683C45.3917 42.2272 44.8301 42.1022 44.2615 42.1022V42.1022Z" fill="url(#paint2_linear_1081_145)"/>
<path d="M72.1699 60.8081H31.5806V32.2852L72.1699 29.0946V60.8081Z" fill="url(#paint3_linear_1081_145)"/>
<path d="M76.9557 56.608V77.7571C76.9557 78.2734 76.854 78.7847 76.6564 79.2618C76.4588 79.7388 76.1691 80.1723 75.804 80.5374C75.4389 80.9025 75.0054 81.1922 74.5284 81.3898C74.0513 81.5874 73.54 81.6891 73.0236 81.6891H30.2167C29.7003 81.6891 29.189 81.5874 28.712 81.3898C28.2349 81.1922 27.8015 80.9025 27.4363 80.5374C27.0712 80.1723 26.7816 79.7388 26.584 79.2618C26.3864 78.7847 26.2847 78.2734 26.2847 77.7571V56.608C26.2847 56.0916 26.3864 55.5803 26.584 55.1032C26.7816 54.6262 27.0712 54.1927 27.4363 53.8276C27.8015 53.4624 28.2349 53.1728 28.712 52.9752C29.189 52.7776 29.7003 52.6759 30.2167 52.6759H73.0236C73.54 52.6759 74.0513 52.7776 74.5284 52.9752C75.0054 53.1728 75.4389 53.4624 75.804 53.8276C76.1691 54.1927 76.4588 54.6262 76.6564 55.1032C76.854 55.5803 76.9557 56.0916 76.9557 56.608V56.608Z" fill="url(#paint4_linear_1081_145)"/>
<path d="M71.9555 30.921C71.9688 30.8274 71.9956 30.7338 72.009 30.6536C72.2599 29.3296 72.2162 27.9667 71.8809 26.6616C71.5457 25.3565 70.9272 24.1412 70.0694 23.102C69.2115 22.0629 68.1353 21.2254 66.9173 20.6491C65.6993 20.0727 64.3693 19.7717 63.0218 19.7673C62.3326 19.765 61.6456 19.8458 60.9757 20.008C59.6098 17.8536 57.5812 16.2011 55.1951 15.299C52.8091 14.397 50.1946 14.2941 47.7451 15.0061C45.2955 15.718 43.1435 17.2062 41.6126 19.2467C40.0818 21.2871 39.255 23.7696 39.2567 26.3205C39.2567 26.4809 39.2567 26.6414 39.2701 26.8019C38.6582 26.596 38.0166 26.4921 37.371 26.4943C35.8849 26.4946 34.4558 27.066 33.3792 28.0905C32.3027 29.1149 31.6611 30.514 31.5872 31.9982C31.5134 33.4825 32.0129 34.9383 32.9824 36.0646C33.9518 37.1909 35.3172 37.9014 36.7959 38.0492L63.0085 38.1027C64.64 38.1008 66.2417 37.6651 67.6494 36.8402C69.0571 36.0153 70.2202 34.831 71.0193 33.4085C71.0595 33.3283 71.113 33.248 71.1531 33.1678C71.5072 32.4527 71.7765 31.6987 71.9555 30.921Z" fill="white"/>
<path d="M53.907 28.9409C53.4239 28.9409 52.9606 28.7491 52.6188 28.4077C52.277 28.0664 52.0847 27.6033 52.0841 27.1202C51.6262 27.1253 51.1811 27.2716 50.8094 27.5392C50.4378 27.8067 50.1578 28.1824 50.0077 28.615C49.8576 29.0477 49.8446 29.5161 49.9707 29.9563C50.0967 30.3965 50.3555 30.7871 50.7118 31.0747C51.0682 31.3624 51.5046 31.533 51.9615 31.5634C52.4184 31.5937 52.8735 31.4823 53.2647 31.2443C53.6559 31.0063 53.9642 30.6533 54.1473 30.2336C54.3304 29.8139 54.3796 29.3479 54.288 28.8993C54.1627 28.9263 54.0351 28.9403 53.907 28.9409Z" fill="url(#paint5_linear_1081_145)"/>
<path d="M56.4751 31.6728C56.3936 30.8708 56.1423 30.0954 55.7378 29.3981C55.6813 30.3159 55.2772 31.1776 54.6079 31.8081C53.9386 32.4386 53.0543 32.7904 52.1348 32.7921C52.0483 32.7921 51.9674 32.773 51.8831 32.7663C49.9726 32.7411 48.1423 31.9944 46.7595 30.6759C45.5706 29.5337 44.6889 28.1101 44.196 26.5369C43.5455 27.1281 42.9293 27.7563 42.3507 28.4182C42.2471 28.5138 42.1643 28.6299 42.1078 28.7591C42.0512 28.8883 42.022 29.0278 42.022 29.1689C42.022 29.3099 42.0512 29.4495 42.1078 29.5787C42.1643 29.7079 42.2471 29.8239 42.3507 29.9196C43.5945 31.4111 45.0598 32.7028 46.6955 33.7496C48.3404 34.877 50.2878 35.4806 52.282 35.4815C53.5781 35.4888 54.8569 35.1847 56.0109 34.5948C56.084 34.561 56.1469 34.5161 56.2188 34.4824C56.4747 33.5693 56.5615 32.6171 56.4751 31.6728V31.6728Z" fill="url(#paint6_linear_1081_145)"/>
<path d="M48.9411 30.8514C48.5678 30.164 48.4306 29.373 48.5506 28.6C48.6706 27.8271 49.0412 27.1149 49.6052 26.573C50.5163 25.3467 51.7933 24.4416 53.2521 23.9882C54.0474 23.7453 54.8728 23.6152 55.7043 23.6016C55.0354 23.3117 54.335 23.1005 53.6173 22.9722C51.6521 22.6414 49.6326 22.9747 47.8779 23.9196C46.8962 24.4288 45.9697 25.0382 45.1133 25.738C45.5175 27.2809 46.3332 28.6851 47.4733 29.8006C47.9131 30.2153 48.4068 30.5688 48.9411 30.8514V30.8514Z" fill="url(#paint7_linear_1081_145)"/>
<path d="M61.9457 28.4677C60.8475 27.1522 59.5792 25.9886 58.1741 25.0074C56.7049 24.6062 55.154 24.614 53.6889 25.0299C53.2487 25.1639 52.824 25.3447 52.4224 25.5693C53.05 25.6136 53.6552 25.8212 54.1778 26.1717C54.2246 26.1851 54.2693 26.2052 54.3104 26.2313C55.1752 26.812 55.9104 27.5656 56.4696 28.4445C57.0287 29.3234 57.3998 30.3086 57.5594 31.338C57.6624 32.1452 57.6499 32.9629 57.5223 33.7666C59.1876 32.7082 60.6784 31.3976 61.9412 29.8815C62.0382 29.7912 62.1157 29.682 62.1687 29.5605C62.2218 29.4391 62.2494 29.3081 62.2498 29.1756C62.2503 29.0431 62.2235 28.9119 62.1712 28.7901C62.1189 28.6684 62.0421 28.5586 61.9457 28.4677V28.4677Z" fill="url(#paint8_linear_1081_145)"/>
<circle cx="52" cy="61.2882" r="14" fill="url(#paint9_linear_1081_145)"/>
<path d="M78.2927 84.9965L64.4819 71.1957C66.4864 68.5899 67.669 65.3327 67.669 61.8048C67.669 53.2658 60.7436 46.3605 52.2246 46.3605C43.7057 46.3605 36.7803 53.2658 36.7803 61.8048C36.7803 70.3439 43.6856 77.2492 52.2246 77.2492C55.6523 77.2492 58.7993 76.1367 61.375 74.2526L76.1941 89.1632C76.1941 89.1632 76.4085 88.5544 77.6813 87.2114C78.9541 85.8684 78.2927 84.9965 78.2927 84.9965ZM39.0854 61.855C39.0854 54.6189 44.9485 48.7558 52.1846 48.7558C59.4207 48.7558 65.2837 54.6189 65.2837 61.855C65.2837 69.0911 59.4006 74.9541 52.1645 74.9541C44.9284 74.9541 39.0854 69.0911 39.0854 61.855Z" fill="#092E4C"/>
<path d="M57.2362 57.0318C57.2362 56.5007 56.8079 56.0724 56.2768 56.0724H44.7553C44.2242 56.0724 43.7959 56.5007 43.7959 57.0318C43.7959 57.5629 44.2242 57.9912 44.7553 57.9912H56.2853C56.8164 57.9826 57.2362 57.5629 57.2362 57.0318Z" fill="#0189EF"/>
<path d="M60.4997 57.0318C60.4997 56.5007 60.0714 56.0724 59.5403 56.0724H56.4051C55.874 56.0724 56.2167 56.5007 56.2167 57.0318C56.2167 57.5629 55.8826 57.9912 56.4051 57.9912H59.5489C60.0629 57.9826 60.4997 57.5629 60.4997 57.0318Z" fill="white"/>
<path d="M53.6984 61.8544C53.6984 61.3233 53.2701 60.895 52.739 60.895H44.7553C44.2242 60.895 43.7959 61.3233 43.7959 61.8544C43.7959 62.3855 44.2242 62.8138 44.7553 62.8138H52.7561C53.2786 62.8053 53.6984 62.3855 53.6984 61.8544Z" fill="#0170D4"/>
<path d="M60.4997 61.8544C60.4997 61.3233 60.0713 60.895 59.5402 60.895H53.3212C52.7901 60.895 52.3618 61.3233 52.3618 61.8544C52.3618 62.3855 52.7901 62.8138 53.3212 62.8138H59.5488C60.0628 62.8053 60.4997 62.3855 60.4997 61.8544Z" fill="white"/>
<path d="M49.2525 66.9684C49.2525 66.4373 48.8242 66.009 48.2931 66.009H44.7553C44.2242 66.0176 43.7959 66.4373 43.7959 66.9684C43.7959 67.4995 44.2242 67.9279 44.7553 67.9279H48.2931C48.8242 67.9107 49.2525 67.491 49.2525 66.9684Z" fill="#185A97"/>
<path d="M60.5003 66.9684C60.5003 66.4373 60.072 66.009 59.5409 66.009H49.2358C48.7047 66.009 48.2764 66.4373 48.2764 66.9684C48.2764 67.4995 48.7047 67.9279 49.2358 67.9279H59.5409C60.0634 67.9107 60.5003 67.491 60.5003 66.9684Z" fill="white"/>
<path opacity="0.15" d="M54.8545 57.435C54.8545 58.4887 55.7025 59.3453 56.7647 59.3453C57.8269 59.3453 58.675 58.4972 58.675 57.435C58.675 56.3814 57.8098 55.5248 56.7562 55.5248C55.7111 55.5419 54.8545 56.3814 54.8545 57.435Z" fill="#1F1D20"/>
<path opacity="0.15" d="M50.6831 62.2575C50.6831 63.3112 51.5312 64.1678 52.5934 64.1678C53.6556 64.1678 54.5036 63.3197 54.5036 62.2575C54.5036 61.2039 53.6556 60.3473 52.5934 60.3473C51.5312 60.3473 50.6831 61.2039 50.6831 62.2575Z" fill="#1F1D20"/>
<path opacity="0.15" d="M46.7515 67.3717C46.7515 68.4253 47.5995 69.2819 48.6617 69.2819C49.7154 69.2819 50.572 68.4339 50.572 67.3717C50.572 66.318 49.7239 65.4614 48.6617 65.4614C47.5995 65.4614 46.7515 66.318 46.7515 67.3717Z" fill="#1F1D20"/>
<path d="M54.8545 57.0317C54.8545 58.0853 55.7025 58.942 56.7647 58.942C57.8269 58.942 58.675 58.0939 58.675 57.0317C58.675 55.9781 57.8098 55.1215 56.7562 55.1215C55.7111 55.1386 54.8545 55.9781 54.8545 57.0317Z" fill="#0D3868"/>
<path d="M50.6831 61.8543C50.6831 62.908 51.5312 63.7646 52.5934 63.7646C53.6556 63.7646 54.5036 62.9165 54.5036 61.8543C54.5036 60.8007 53.6556 59.9441 52.5934 59.9441C51.5312 59.9441 50.6831 60.8007 50.6831 61.8543Z" fill="#0D3868"/>
<path d="M46.7515 66.9684C46.7515 68.022 47.5995 68.8786 48.6617 68.8786C49.7154 68.8786 50.572 68.0306 50.572 66.9684C50.572 65.9147 49.7239 65.0581 48.6617 65.0581C47.5995 65.0581 46.7515 65.9147 46.7515 66.9684Z" fill="#0D3868"/>
<defs>
<linearGradient id="paint0_linear_1081_145" x1="49.3501" y1="-13.3528" x2="53.3321" y2="132.417" gradientUnits="userSpaceOnUse">
<stop stop-color="#00ABDE"/>
<stop offset="1" stop-color="#007ED8"/>
</linearGradient>
<linearGradient id="paint1_linear_1081_145" x1="2.55435" y1="-20.1859" x2="98.0819" y2="120.695" gradientUnits="userSpaceOnUse">
<stop stop-color="#007ED8"/>
<stop offset="0.7065" stop-color="#002D4C"/>
</linearGradient>
<linearGradient id="paint2_linear_1081_145" x1="51.6202" y1="42.1022" x2="51.6202" y2="59.7301" gradientUnits="userSpaceOnUse">
<stop stop-color="#005BA1"/>
<stop offset="0.26" stop-color="#00589D"/>
<stop offset="0.53" stop-color="#004F90"/>
<stop offset="0.8" stop-color="#003F7C"/>
<stop offset="1" stop-color="#003067"/>
</linearGradient>
<linearGradient id="paint3_linear_1081_145" x1="51.8749" y1="60.8084" x2="51.8749" y2="29.0949" gradientUnits="userSpaceOnUse">
<stop stop-color="white" stop-opacity="0"/>
<stop offset="1" stop-color="white"/>
</linearGradient>
<linearGradient id="paint4_linear_1081_145" x1="51.6202" y1="52.6759" x2="51.6202" y2="81.6891" gradientUnits="userSpaceOnUse">
<stop stop-color="#008BF1"/>
<stop offset="0.22" stop-color="#0086EC"/>
<stop offset="0.49" stop-color="#0078DD"/>
<stop offset="0.79" stop-color="#0061C4"/>
<stop offset="1" stop-color="#004DAE"/>
</linearGradient>
<linearGradient id="paint5_linear_1081_145" x1="52.1088" y1="31.5639" x2="52.1088" y2="27.118" gradientUnits="userSpaceOnUse">
<stop stop-color="#29BADE"/>
<stop offset="1" stop-color="#50E6FF"/>
</linearGradient>
<linearGradient id="paint6_linear_1081_145" x1="49.2645" y1="35.4882" x2="49.2645" y2="22.8428" gradientUnits="userSpaceOnUse">
<stop offset="0.041" stop-color="#32BEDD"/>
<stop offset="0.495" stop-color="#50E6FF"/>
<stop offset="0.92" stop-color="#C3F1FF"/>
</linearGradient>
<linearGradient id="paint7_linear_1081_145" x1="50.4088" y1="30.3423" x2="50.4088" y2="19.3366" gradientUnits="userSpaceOnUse">
<stop offset="0.244" stop-color="#0078D4"/>
<stop offset="0.6" stop-color="#2E8CE1"/>
<stop offset="0.933" stop-color="#589EED"/>
</linearGradient>
<linearGradient id="paint8_linear_1081_145" x1="57.3358" y1="35.4883" x2="57.3358" y2="23.7633" gradientUnits="userSpaceOnUse">
<stop stop-color="#005BA1"/>
<stop offset="0.399" stop-color="#0078D4"/>
<stop offset="0.857" stop-color="#5EA0EF"/>
</linearGradient>
<linearGradient id="paint9_linear_1081_145" x1="51.9998" y1="75.2885" x2="51.9998" y2="47.2885" gradientUnits="userSpaceOnUse">
<stop stop-color="white" stop-opacity="0"/>
<stop offset="1" stop-color="white"/>
</linearGradient>
</defs>
</svg>
